HIERARCHY
ROOT root
{
	OFFSET 0.000000 0.000000 0.000000
	CHANNELS 6 Xposition Yposition Zposition Zrotation Yrotation Xrotation
	JOINT lhip
	{
		OFFSET 0.058581 -0.082280 -0.017664
		CHANNELS 3 Zrotation Yrotation Xrotation
		JOINT lknee
		{
			OFFSET 0.043451 -0.386469 0.008037
			CHANNELS 3 Zrotation Yrotation Xrotation
			JOINT lankle
			{
				OFFSET -0.014790 -0.426874 -0.037428
				CHANNELS 3 Zrotation Yrotation Xrotation
				JOINT ltoe
				{
					OFFSET 0.041054 -0.060286 0.122042
					CHANNELS 3 Zrotation Yrotation Xrotation
					End Site
					{
						OFFSET 0.000000 0.000000 0.000000
					}
				}
			}
		}
	}
	JOINT rhip
	{
		OFFSET -0.060310 -0.090513 -0.013543
		CHANNELS 3 Zrotation Yrotation Xrotation
		JOINT rknee
		{
			OFFSET -0.043257 -0.383688 -0.004843
			CHANNELS 3 Zrotation Yrotation Xrotation
			JOINT rankle
			{
				OFFSET 0.019056 -0.420046 -0.034562
				CHANNELS 3 Zrotation Yrotation Xrotation
				JOINT rtoe
				{
					OFFSET -0.034840 -0.062106 0.130323
					CHANNELS 3 Zrotation Yrotation Xrotation
					End Site
					{
						OFFSET 0.000000 0.000000 0.000000
					}
				}
			}
		}
	}
	JOINT lowerback
	{
		OFFSET 0.004439 0.124404 -0.038385
		CHANNELS 3 Zrotation Yrotation Xrotation
		JOINT upperback
		{
			OFFSET 0.004488 0.137956 0.026820
			CHANNELS 3 Zrotation Yrotation Xrotation
			JOINT chest
			{
				OFFSET -0.002265 0.056032 0.002855
				CHANNELS 3 Zrotation Yrotation Xrotation
				JOINT lowerneck
				{
					OFFSET -0.013390 0.211636 -0.033468
					CHANNELS 3 Zrotation Yrotation Xrotation
					JOINT upperneck
					{
						OFFSET 0.010113 0.088937 0.050410
						CHANNELS 3 Zrotation Yrotation Xrotation
						End Site
						{
							OFFSET 0.000000 0.000000 0.000000
						}
					}
				}
				JOINT lclavicle
				{
					OFFSET 0.071702 0.114000 -0.018898
					CHANNELS 3 Zrotation Yrotation Xrotation
					JOINT lshoulder
					{
						OFFSET 0.122921 0.045205 -0.019046
						CHANNELS 3 Zrotation Yrotation Xrotation
						JOINT lelbow
						{
							OFFSET 0.255332 -0.015649 -0.022946
							CHANNELS 3 Zrotation Yrotation Xrotation
							JOINT lwrist
							{
								OFFSET 0.265709 0.012698 -0.007375
								CHANNELS 3 Zrotation Yrotation Xrotation
								End Site
								{
									OFFSET 0.000000 0.000000 0.000000
								}
							}
						}
					}
				}
				JOINT rclavicle
				{
					OFFSET -0.082954 0.112472 -0.023707
					CHANNELS 3 Zrotation Yrotation Xrotation
					JOINT rshoulder
					{
						OFFSET -0.113228 0.046853 -0.008472
						CHANNELS 3 Zrotation Yrotation Xrotation
						JOINT relbow
						{
							OFFSET -0.260127 -0.014369 -0.031269
							CHANNELS 3 Zrotation Yrotation Xrotation
							JOINT rwrist
							{
								OFFSET -0.269108 0.006794 -0.006027
								CHANNELS 3 Zrotation Yrotation Xrotation
								End Site
								{
									OFFSET 0.000000 0.000000 0.000000
								}
							}
						}
					}
				}
			}
		}
	}
}
MOTION
Frames: 8
Frame Time: 0.033333
0.158982 -0.392275 0.983048 -9.886412 2.971773 90.406618 8.253274 4.618697 -31.549235 -7.356804 -1.479360 11.774528 -23.029738 -3.599238 25.322532 0.000000 -0.000000 0.000000 0.302561 -26.567677 -4.505406 9.530078 -6.816933 15.756988 0.392965 14.616051 -14.943092 0.000000 -0.000000 0.000000 0.796430 10.389748 11.878161 0.595178 -2.325257 -2.234181 2.712827 1.153923 -4.986137 2.313680 3.542110 -7.090194 6.306672 -3.833729 14.243724 -25.939432 -3.149966 -4.995817 -52.743953 -12.424764 -1.268314 33.554664 -24.103041 -19.906062 11.055587 -2.952780 -2.417231 23.783483 7.395362 3.412153 49.794247 9.815973 2.740109 -0.663088 19.986252 17.647821 -4.362901 1.028459 3.321444 
0.158613 -0.397551 0.985640 -7.290893 2.469051 87.298934 8.262714 0.542283 -27.276688 -7.320419 -2.306651 10.484035 -22.182582 -0.650197 18.895404 0.000000 -0.000000 0.000000 1.759528 -9.741690 3.741388 9.723983 -10.257726 3.814829 0.425380 -0.381801 -12.135543 0.000000 -0.000000 0.000000 -0.302784 7.888576 16.466431 1.518474 -1.880659 -4.178483 2.800437 1.210778 -4.281833 3.131367 2.019074 -7.340916 5.469875 -2.765973 13.929362 -25.787462 -2.857122 -3.286544 -54.418962 -13.246468 2.946693 29.293430 -20.300404 -16.401731 26.412555 -14.303691 1.431539 22.926071 7.099200 0.608463 51.247229 8.081508 8.731130 -2.389980 19.801371 15.596897 -2.244386 1.402565 1.287882 
0.159400 -0.399399 0.985859 -7.253301 2.201211 87.021009 7.705039 1.076283 -26.941015 -6.517451 -1.859066 11.128498 -22.457617 2.048875 15.905999 0.000000 -0.000000 0.000000 1.422705 -8.620160 4.392610 9.804763 -10.470130 3.235466 1.023496 -1.125256 -11.752472 0.000000 -0.000000 0.000000 -0.323976 7.917130 16.770767 1.703327 -1.986172 -4.380305 2.571540 1.285125 -4.042332 3.370763 2.749812 -7.162859 5.135456 -3.533048 13.354830 -25.267885 -3.044150 -2.817384 -56.172599 -10.563584 7.152009 20.259344 -19.850481 -5.731736 25.195326 -12.979588 -0.000320 22.644305 6.715890 0.611839 51.344937 8.375085 10.033764 -1.927972 20.389467 15.613418 -9.316939 1.330011 -0.014663 
0.158230 -0.401071 0.985088 -7.364427 2.181069 87.007057 7.728824 1.794174 -26.921230 -6.909130 -2.193814 11.629491 -21.923849 1.244803 15.299295 0.000000 -0.000000 0.000000 1.520474 -8.789938 4.532085 9.663142 -10.129662 3.182727 0.967818 -1.198800 -11.677936 0.000000 -0.000000 0.000000 -0.363228 7.807965 16.783748 1.787631 -1.967753 -4.536159 2.538952 1.450083 -3.986078 3.475260 2.634313 -7.525023 5.113127 -3.444638 13.711075 -25.560489 -3.582501 -2.969278 -56.180913 -9.233551 7.938862 14.784941 -18.965508 -0.466065 18.399610 -10.870533 3.847527 22.230563 6.847878 0.396444 51.883116 7.988594 10.374060 -2.922416 21.264367 16.201034 -2.156399 0.412056 0.766332 
0.157937 -0.401514 0.984855 -7.367953 2.178215 87.023610 7.762877 1.842152 -26.912294 -6.939366 -2.170993 11.676843 -21.980986 1.148863 15.224396 0.000000 -0.000000 0.000000 1.554991 -8.771168 4.566325 9.613407 -10.182084 3.133726 1.016332 -1.132829 -11.618851 0.000000 -0.000000 0.000000 -0.308013 7.755536 16.818782 1.778163 -1.951785 -4.654655 2.498287 1.457833 -3.926967 3.534711 2.620468 -7.579372 5.008557 -3.504268 13.748097 -25.607233 -3.634758 -2.947466 -56.115258 -9.219851 7.991466 14.843589 -18.866032 -0.399513 17.547069 -10.647445 3.687523 22.157254 6.835898 0.342990 52.054954 8.013432 10.506765 -3.048272 21.346488 16.096203 -2.026166 0.392090 0.608537 
0.157083 -0.402355 0.984289 -7.366923 2.265742 87.297989 8.085419 1.517743 -27.202434 -6.860169 -1.605708 11.776714 -22.318932 0.902138 15.150198 0.000000 -0.000000 0.000000 1.891185 -8.495205 4.226853 9.265925 -11.262590 3.256453 0.955785 -0.358723 -11.476716 0.000000 -0.000000 0.000000 -0.221082 7.522360 16.436186 1.928276 -1.785173 -4.571618 2.384726 1.396365 -4.091533 3.687498 3.820503 -7.156879 4.525191 -4.460051 13.368581 -25.159552 -3.498565 -2.259931 -56.465909 -8.775377 8.073549 14.597919 -20.017169 2.986503 -4.713774 -4.459343 -2.437741 22.071943 6.485440 0.974116 52.401141 8.272962 10.811018 -4.623378 22.612537 17.521411 4.107133 -0.711508 -2.171189 
0.156090 -0.402361 0.983537 -7.597925 2.162406 87.696645 8.134823 1.638338 -27.777347 -6.924954 -1.370541 12.098772 -21.694918 0.810688 15.159029 0.000000 -0.000000 0.000000 1.603914 -9.744809 3.417266 9.352956 -10.586752 4.205599 0.902091 0.440965 -11.852479 0.000000 -0.000000 0.000000 -0.389280 7.862474 15.961829 1.960370 -1.951141 -4.699277 2.391936 1.413841 -3.841814 3.705894 3.625815 -7.419138 4.677287 -4.400961 13.426068 -24.968718 -3.535411 -2.361114 -56.473057 -9.025191 8.197437 14.164935 -20.134348 2.163047 -0.601996 -5.758959 -1.091092 21.862952 6.500090 0.994082 52.709662 8.544822 10.703391 -4.460347 22.511531 17.123558 2.882973 -0.615395 -1.603241 
0.156186 -0.403963 0.984414 -7.396627 2.026199 87.373821 8.092914 0.773918 -27.029145 -6.866499 -1.414340 11.581458 -21.379771 1.305057 14.773878 0.000000 -0.000000 0.000000 1.691774 -8.368086 4.240801 9.324024 -10.941830 3.289961 0.894245 -0.691775 -11.440208 0.000000 -0.000000 0.000000 -0.324513 7.589464 16.227573 1.921383 -1.939109 -4.487489 2.364889 1.392601 -3.975080 3.703509 3.209334 -7.124961 4.651615 -3.913350 13.230665 -25.206593 -3.539865 -2.439678 -56.334333 -9.105935 8.254307 14.285137 -19.821265 1.920548 -0.837048 -5.806691 -1.005117 21.767908 6.544950 0.706821 52.765361 8.355681 11.214487 -4.639001 22.538592 16.925642 3.171210 -0.693790 -1.911981 
